<?xml version="1.0" encoding="UTF-8" standalone="no"?>
<!-- Created with Inkscape (http://www.inkscape.org/) -->

<svg
   width="210mm"
   height="210mm"
   viewBox="0 0 210 210"
   version="1.1"
   id="svg1"
   xml:space="preserve"
   inkscape:version="1.3.2 (091e20ef0f, 2023-11-25)"
   sodipodi:docname="favicon.svg"
   inkscape:export-filename="../../Downloads/favicon-2.png"
   inkscape:export-xdpi="61.927616"
   inkscape:export-ydpi="61.927616"
   xmlns:inkscape="http://www.inkscape.org/namespaces/inkscape"
   xmlns:sodipodi="http://sodipodi.sourceforge.net/DTD/sodipodi-0.dtd"
   xmlns:xlink="http://www.w3.org/1999/xlink"
   xmlns="http://www.w3.org/2000/svg"
   xmlns:svg="http://www.w3.org/2000/svg"><sodipodi:namedview
     id="namedview1"
     pagecolor="#ffffff"
     bordercolor="#000000"
     borderopacity="0.25"
     inkscape:showpageshadow="2"
     inkscape:pageopacity="0.0"
     inkscape:pagecheckerboard="0"
     inkscape:deskcolor="#d1d1d1"
     inkscape:document-units="mm"
     inkscape:zoom="1.0263363"
     inkscape:cx="398.01769"
     inkscape:cy="443.32448"
     inkscape:window-width="1066"
     inkscape:window-height="592"
     inkscape:window-x="0"
     inkscape:window-y="0"
     inkscape:window-maximized="1"
     inkscape:current-layer="g1312" /><defs
     id="defs1"><linearGradient
       id="linearGradient233"
       inkscape:collect="always"><stop
         style="stop-color:#a1e9e9;stop-opacity:1;"
         offset="0.33000001"
         id="stop233" /><stop
         style="stop-color:#ffff64;stop-opacity:1;"
         offset="0.66928744"
         id="stop234" /></linearGradient><linearGradient
       id="linearGradient5"
       inkscape:collect="always"><stop
         style="stop-color:#75d3ff;stop-opacity:1;"
         offset="0"
         id="stop6" /><stop
         style="stop-color:#fcff66;stop-opacity:1;"
         offset="1"
         id="stop7" /></linearGradient><linearGradient
       id="swatch5"
       inkscape:swatch="solid"><stop
         style="stop-color:#000000;stop-opacity:1;"
         offset="0"
         id="stop5" /></linearGradient><linearGradient
       inkscape:collect="always"
       xlink:href="#linearGradient5"
       id="linearGradient7"
       x1="0"
       y1="105"
       x2="210"
       y2="105"
       gradientUnits="userSpaceOnUse" /><filter
       style="color-interpolation-filters:sRGB;"
       inkscape:label="Noise Fill"
       id="filter71"
       x="0"
       y="0"
       width="1"
       height="1"><feTurbulence
         type="fractalNoise"
         baseFrequency="28.6323 29.7032"
         numOctaves="5"
         seed="160"
         result="turbulence"
         id="feTurbulence70" /><feComposite
         in="SourceGraphic"
         in2="turbulence"
         operator="in"
         result="composite1"
         id="feComposite70" /><feColorMatrix
         values="1 0 0 0 0 0 1 0 0 0 0 0 1 0 0 0 0 0 3.73 -1 "
         result="color"
         id="feColorMatrix70" /><feFlood
         flood-opacity="0.188235"
         flood-color="rgb(245,255,118)"
         result="flood"
         id="feFlood70" /><feMerge
         result="merge"
         id="feMerge71"><feMergeNode
           in="flood"
           id="feMergeNode70" /><feMergeNode
           in="color"
           id="feMergeNode71" /></feMerge><feComposite
         in2="SourceGraphic"
         operator="in"
         result="fbSourceGraphic"
         id="feComposite71" /><feColorMatrix
         result="fbSourceGraphicAlpha"
         in="fbSourceGraphic"
         values="0 0 0 -1 0 0 0 0 -1 0 0 0 0 -1 0 0 0 0 1 0"
         id="feColorMatrix221" /><feTurbulence
         id="feTurbulence221"
         type="fractalNoise"
         baseFrequency="1 1"
         numOctaves="3"
         seed="88"
         result="turbulence"
         in="fbSourceGraphic" /><feComposite
         id="feComposite221"
         in="fbSourceGraphic"
         in2="turbulence"
         operator="in"
         result="composite1" /><feColorMatrix
         id="feColorMatrix222"
         values="1 0 0 0 0 0 1 0 0 0 0 0 1 0 0 0 0 0 9.61 -1.5 "
         result="color" /><feFlood
         id="feFlood222"
         flood-opacity="0.188235"
         flood-color="rgb(245,255,118)"
         result="flood" /><feMerge
         id="feMerge222"
         result="merge"><feMergeNode
           id="feMergeNode222"
           in="flood" /><feMergeNode
           id="feMergeNode223"
           in="color" /></feMerge><feComposite
         id="feComposite223"
         in2="fbSourceGraphic"
         operator="in"
         result="fbSourceGraphic" /><feColorMatrix
         result="fbSourceGraphicAlpha"
         in="fbSourceGraphic"
         values="0 0 0 -1 0 0 0 0 -1 0 0 0 0 -1 0 0 0 0 1 0"
         id="feColorMatrix312" /><feTurbulence
         id="feTurbulence312"
         type="fractalNoise"
         baseFrequency="0.6 1.6"
         numOctaves="1"
         seed="75"
         result="turbulence"
         in="fbSourceGraphic" /><feComposite
         id="feComposite312"
         in="fbSourceGraphic"
         in2="turbulence"
         operator="in"
         result="composite1" /><feColorMatrix
         id="feColorMatrix313"
         values="1 0 0 0 0 0 1 0 0 0 0 0 1 0 0 0 0 0 9.12982 -2.58 "
         result="color" /><feFlood
         id="feFlood313"
         flood-opacity="0.188235"
         flood-color="rgb(245,255,118)"
         result="flood" /><feMerge
         id="feMerge313"
         result="merge"><feMergeNode
           id="feMergeNode313"
           in="flood" /><feMergeNode
           id="feMergeNode314"
           in="color" /></feMerge><feComposite
         id="feComposite314"
         in2="fbSourceGraphic"
         operator="in"
         result="composite2" /></filter><linearGradient
       inkscape:collect="always"
       xlink:href="#linearGradient233"
       id="linearGradient234"
       x1="3.8417346"
       y1="16.837475"
       x2="205.84106"
       y2="195.99121"
       gradientUnits="userSpaceOnUse" /></defs><g
     inkscape:label="Layer 1"
     inkscape:groupmode="layer"
     id="layer1"><circle
       style="fill:url(#linearGradient234);fill-opacity:1;stroke-width:0.264583"
       id="path232"
       cx="105"
       cy="105"
       r="105" /><circle
       style="fill:url(#linearGradient7);fill-opacity:1;stroke-width:0.264583;filter:url(#filter71)"
       id="path1"
       cx="105"
       cy="105"
       r="105"
       transform="rotate(49.511953,105,105)" /><g
       id="g1312"
       transform="matrix(0.32289973,0,0,0.35881618,-14.29143,-56.736393)"
       style="fill:#757575;fill-opacity:1"><path
         id="path1363"
         style="fill:#757575;fill-opacity:1"
         d="m 361.59,196.59 c -7.47,0.16 -11.55,4.52 -9.09,10.47 3.13,7.59 20.34,5 20.34,-3.06 0,-4.14 -2.57,-6.53 -7.84,-7.22 -1.2,-0.16 -2.34,-0.21 -3.41,-0.19 z m 1.32,-15.75 c 20.53,0 39.44,22.28 27.97,32.94 -4.36,4.05 -0.77,24.15 5.12,28.69 2.3,1.77 22.37,5.31 44.62,7.87 37.87,4.36 41.12,4.34 50.32,-0.72 15.63,-8.58 21.28,-3.09 21.28,20.69 0,22.49 -5.41,28.78 -18.97,22.03 -6.12,-3.04 -15.51,-3.14 -43.47,-0.5 -43.14,4.08 -51.18,6.65 -54.03,17.19 -2.69,9.98 0.71,161.67 4.81,214.22 3.12,39.89 8.28,62.65 16.16,71.34 5.49,6.05 38.37,15.07 54.25,14.88 29.29,-0.35 64.36,-20.12 108.69,-61.28 5.4,-5.02 9.43,-8.64 13.43,-12.22 -17.26,-4.88 -42.81,-7.59 -42.81,-7.59 l 91.44,-32.85 c 0,0 -5.74,97.51 -8.6,103.22 -3.24,3.51 -8.56,-24.93 -17.43,-43.72 -1.4,2.59 -2.34,4.65 -4.07,7.63 -43.76,75.6 -82.36,106.13 -141.43,111.78 -31.19,2.98 -68.77,10.22 -78.81,15.22 -3.69,1.83 -10.62,9.58 -15.41,17.18 -4.79,7.61 -10.67,13.82 -13.06,13.82 -2.39,0 -8.27,-6.21 -13.07,-13.82 -4.79,-7.6 -11.75,-15.35 -15.43,-17.18 -10.05,-5 -47.59,-12.24 -78.79,-15.22 -55.92,-5.35 -93.55,-33.5 -134.53,-100.56 -7.61,18.45 -12.39,42.06 -15.37,38.84 C 102.86,607 97.156,509.5 97.156,509.5 l 91.404,32.88 c 0,0 -23.81,2.49 -41,7.06 43.65,40.26 78.31,59.68 107.28,60.03 15.88,0.19 48.74,-8.83 54.22,-14.88 7.89,-8.69 13.04,-31.45 16.16,-71.34 4.1,-52.55 7.54,-204.24 4.84,-214.22 -2.84,-10.54 -10.88,-13.11 -54.03,-17.19 -27.96,-2.64 -37.34,-2.54 -43.47,0.5 -13.56,6.75 -19,0.46 -19,-22.03 0,-23.78 5.68,-29.27 21.32,-20.69 9.19,5.06 12.41,5.08 50.28,0.72 22.26,-2.56 42.35,-6.1 44.65,-7.87 5.89,-4.54 9.49,-24.64 5.13,-28.69 -11.47,-10.66 7.43,-32.94 27.97,-32.94 z" /><path
         id="path1351"
         sodipodi:nodetypes="csscccsssscccssssssscccsssscccsccc"
         style="fill:#757575;fill-opacity:1"
         d="m 355.16,695.66 c -3.17,-4.99 -9.18,-11.16 -13.36,-13.7 -9.78,-5.96 -45.81,-13.43 -80.97,-16.79 -58.91,-5.63 -94.9,-33.99 -138.3,-108.95 l -15.73,-27.17 33.01,30.25 c 46.55,42.68 78.06,59.16 113.6,59.43 23.3,0.17 54.44,-8.01 62.47,-16.41 15.03,-15.72 19.82,-58.24 22.9,-203.21 2.38,-111.95 3.3,-108.35 -29.12,-113.44 -12.66,-1.98 -37.9,-3.82 -56.1,-4.08 l -33.08,-0.48 -0.02,-11.9 c -0.01,-10.14 0.84,-11.56 5.79,-9.63 12.5,4.88 21.14,4.92 62.19,0.24 47.56,-5.43 53.08,-8.04 56.49,-26.8 2.16,-11.85 2.44,-12.06 16.54,-12.06 14.1,0 14.39,0.21 16.55,12.06 3.4,18.76 8.93,21.37 56.48,26.8 41.06,4.68 49.7,4.64 62.2,-0.24 4.95,-1.93 5.8,-0.51 5.79,9.63 l -0.02,11.9 -33.09,0.48 c -18.19,0.26 -43.43,2.1 -56.09,4.08 -32.43,5.09 -31.5,1.49 -29.12,113.44 3.07,144.97 7.86,187.49 22.89,203.21 8.03,8.4 39.18,16.58 62.48,16.41 35.54,-0.27 67.04,-17.76 113.6,-60.44 l 42.09,-40.35 -11.68,26.16 c -43.36,74.9 -92.43,115.35 -151.43,121.14 -58.31,5.73 -79.97,12.25 -92.01,27.71 l -9.18,11.78 z" /><path
         id="path5012"
         sodipodi:nodetypes="ccccc"
         style="fill:#757575;fill-opacity:1;fill-rule:evenodd"
         d="m 102.99,516.19 5.16,77.93 c 0,0 11.44,-32.59 18.28,-45.02 8.13,-1.82 42.64,-8.05 41.65,-9.08 -38.23,-15.2 -64.15,-20.78 -65.09,-23.83 z" /><path
         id="path5740"
         sodipodi:nodetypes="ccccc"
         style="fill:#757575;fill-opacity:1;fill-rule:evenodd"
         d="m 635.57,503.26 -4.42,77.98 c 0,0 -11.75,-32.48 -18.71,-44.85 -8.14,-1.74 -42.71,-7.64 -41.73,-8.69 38.09,-15.55 63.96,-21.38 64.86,-24.44 z" /></g></g></svg>
